<svg xmlns="http://www.w3.org/2000/svg" viewBox="0 0 1080 1600" role="img" aria-labelledby="title desc">
  <title id="title">Cocina con olla de granito</title>
  <desc id="desc">Poster local para hero de cocina saludable con olla de granito y alimentos frescos.</desc>
  <defs>
    <linearGradient id="bg" x1="0" x2="1" y1="0" y2="1">
      <stop offset="0" stop-color="#f7e4cf"/>
      <stop offset="0.48" stop-color="#fffdf6"/>
      <stop offset="1" stop-color="#9fb88c"/>
    </linearGradient>
    <radialGradient id="glow" cx="46%" cy="32%" r="62%">
      <stop offset="0" stop-color="#ffd166" stop-opacity="0.52"/>
      <stop offset="1" stop-color="#ffd166" stop-opacity="0"/>
    </radialGradient>
    <filter id="shadow" x="-20%" y="-20%" width="140%" height="140%">
      <feDropShadow dx="0" dy="32" stdDeviation="28" flood-color="#191b14" flood-opacity="0.24"/>
    </filter>
  </defs>
  <rect width="1080" height="1600" fill="url(#bg)"/>
  <rect width="1080" height="1600" fill="url(#glow)"/>
  <circle cx="172" cy="210" r="126" fill="#d83b24" opacity="0.88"/>
  <circle cx="910" cy="282" r="86" fill="#176b49" opacity="0.9"/>
  <circle cx="844" cy="1260" r="152" fill="#f5a45d" opacity="0.78"/>
  <g filter="url(#shadow)">
    <ellipse cx="540" cy="850" rx="390" ry="136" fill="#151a16"/>
    <rect x="224" y="600" width="632" height="280" rx="120" fill="#20251f"/>
    <ellipse cx="540" cy="604" rx="316" ry="105" fill="#303932"/>
    <ellipse cx="540" cy="570" rx="254" ry="78" fill="#f4efe4"/>
    <circle cx="456" cy="562" r="55" fill="#ffd166"/>
    <circle cx="615" cy="552" r="38" fill="#d83b24"/>
    <path d="M350 620c96 62 286 64 382 0" fill="none" stroke="#176b49" stroke-width="22" stroke-linecap="round"/>
    <path d="M206 750h-94c-36 0-66 30-66 66s30 66 66 66h118" fill="none" stroke="#20251f" stroke-width="42" stroke-linecap="round"/>
    <path d="M850 748h116c36 0 66 30 66 66s-30 66-66 66H844" fill="none" stroke="#20251f" stroke-width="42" stroke-linecap="round"/>
  </g>
  <g opacity="0.95">
    <path d="M214 1118c116 72 238 108 366 108 116 0 216-28 300-84" fill="none" stroke="#d83b24" stroke-width="18" stroke-linecap="round"/>
    <circle cx="292" cy="1198" r="28" fill="#176b49"/>
    <circle cx="374" cy="1240" r="20" fill="#ffd166"/>
    <circle cx="744" cy="1206" r="24" fill="#176b49"/>
  </g>
  <text x="78" y="158" fill="#191b14" font-family="Georgia, serif" font-size="72" font-weight="700">Granito para diario</text>
  <text x="78" y="244" fill="#686f61" font-family="Arial, sans-serif" font-size="34" font-weight="800">producto real / cocina real / WhatsApp</text>
</svg>
